<?xml version="1.0" standalone="no"?>
<!DOCTYPE svg PUBLIC "-//W3C//DTD SVG 20010904//EN"
 "http://www.w3.org/TR/2001/REC-SVG-20010904/DTD/svg10.dtd">
<svg version="1.0" xmlns="http://www.w3.org/2000/svg"
 width="700.000000pt" height="700.000000pt" viewBox="0 0 700.000000 700.000000"
 preserveAspectRatio="xMidYMid meet">
<metadata>
Created by potrace 1.11, written by Peter Selinger 2001-2013
</metadata>
<g transform="translate(0.000000,700.000000) scale(0.100000,-0.100000)"
fill="#000000" stroke="none">
<path d="M3299 6995 c-2 -1 -44 -6 -94 -9 -336 -24 -695 -112 -1040 -254
l-120 -50 -2 -928 -2 -927 1055 1054 c580 580 1054 1058 1054 1063 0 5 -2 7
-5 4 -3 -3 -37 0 -74 7 -38 8 -99 17 -137 20 -38 4 -80 9 -94 11 -31 5 -537
14 -541 9z"/>
<path d="M3951 6109 c-385 -386 -701 -704 -701 -708 0 -3 718 -6 1595 -6 877
0 1595 3 1595 6 0 11 -150 219 -214 299 -241 296 -543 565 -858 763 -59 37
-112 67 -118 67 -5 0 -10 3 -10 8 0 4 -10 12 -23 18 -12 6 -82 42 -156 79
-104 52 -388 175 -406 175 -1 0 -318 -316 -704 -701z"/>
<path d="M3478 5034 c-2 -1 -35 -4 -73 -5 -106 -4 -370 -56 -400 -79 -5 -4
-22 -10 -36 -14 -15 -3 -69 -26 -120 -50 -85 -40 -131 -68 -268 -159 -65 -43
-252 -233 -313 -317 -151 -209 -257 -464 -283 -680 -4 -30 -9 -58 -12 -63 -5
-9 -5 -304 1 -332 2 -11 7 -40 10 -65 36 -241 145 -498 294 -695 59 -77 231
-248 303 -302 350 -259 775 -357 1214 -279 144 26 357 109 501 197 144 87 325
251 425 384 273 363 369 802 275 1260 -28 139 -99 313 -184 455 -123 205 -317
398 -522 521 -235 141 -450 204 -752 223 -32 2 -59 2 -60 0z m198 -600 c200
-42 345 -117 486 -252 69 -66 147 -171 188 -252 63 -124 102 -297 99 -444 -4
-264 -111 -504 -303 -683 -320 -298 -815 -336 -1181 -90 -144 97 -279 264
-343 422 -54 136 -72 240 -68 395 6 199 49 336 161 505 104 158 270 288 450
356 146 54 366 73 511 43z"/>
<path d="M5880 3905 c580 -580 1057 -1051 1061 -1047 6 6 14 54 35 207 20 149
26 620 10 750 -3 22 -8 65 -11 95 -39 342 -149 734 -287 1027 l-10 21 -926 0
-926 1 1054 -1054z"/>
<path d="M53 4132 c-1 -10 -6 -45 -12 -78 -12 -69 -18 -125 -30 -249 -8 -92
-6 -543 3 -625 9 -80 28 -224 32 -245 2 -11 9 -47 15 -80 17 -99 58 -263 95
-382 20 -62 35 -116 35 -120 1 -5 4 -12 9 -18 4 -5 18 -38 29 -72 12 -34 32
-87 46 -117 14 -30 29 -66 34 -79 l10 -25 927 0 927 0 -1054 1054 c-580 580
-1056 1054 -1059 1054 -3 0 -6 -8 -7 -18z"/>
<path d="M3902 1117 c-578 -578 -1052 -1054 -1052 -1057 0 -3 12 -7 28 -8 15
-1 38 -4 52 -7 147 -29 307 -40 570 -40 192 1 365 9 424 21 12 2 41 7 66 10
274 36 616 132 877 245 l91 40 0 925 c0 508 -1 924 -2 924 0 0 -475 -474
-1054 -1053z"/>
<path d="M564 1598 c-2 -3 35 -60 82 -127 344 -482 806 -872 1339 -1130 73
-35 348 -151 359 -151 7 0 1406 1402 1406 1408 0 9 -3181 9 -3186 0z"/>
</g>
</svg>
