<?xml version="1.0" encoding="UTF-8" standalone="no"?>
<!-- Generator: Adobe Illustrator 19.1.0, SVG Export Plug-In . SVG Version: 6.00 Build 0)  -->

<svg
   xmlns:dc="http://purl.org/dc/elements/1.1/"
   xmlns:cc="http://creativecommons.org/ns#"
   xmlns:rdf="http://www.w3.org/1999/02/22-rdf-syntax-ns#"
   xmlns:svg="http://www.w3.org/2000/svg"
   xmlns="http://www.w3.org/2000/svg"
   xmlns:sodipodi="http://sodipodi.sourceforge.net/DTD/sodipodi-0.dtd"
   xmlns:inkscape="http://www.inkscape.org/namespaces/inkscape"
   version="1.1"
   id="Layer_1"
   x="0px"
   y="0px"
   viewBox="0 0 48 48"
   xml:space="preserve"
   inkscape:version="0.91 r13725"
   sodipodi:docname="avatar2.0.white.svg"
   width="48"
   height="48"><metadata
     id="metadata77"><rdf:RDF><cc:Work
         rdf:about=""><dc:format>image/svg+xml</dc:format><dc:type
           rdf:resource="http://purl.org/dc/dcmitype/StillImage" /><dc:title></dc:title></cc:Work></rdf:RDF></metadata><defs
     id="defs75"><inkscape:path-effect
       effect="powerstroke"
       id="path-effect4503"
       is_visible="true"
       offset_points="0,1 | 2.5,1"
       sort_points="true"
       interpolator_type="Linear"
       interpolator_beta="0.2"
       start_linecap_type="round"
       linejoin_type="round"
       miter_limit="3"
       end_linecap_type="round" /></defs><sodipodi:namedview
     pagecolor="#525252"
     bordercolor="#666666"
     borderopacity="1"
     objecttolerance="10"
     gridtolerance="10"
     guidetolerance="10"
     inkscape:pageopacity="0"
     inkscape:pageshadow="2"
     inkscape:window-width="1920"
     inkscape:window-height="1028"
     id="namedview73"
     showgrid="false"
     fit-margin-top="0"
     fit-margin-left="0"
     fit-margin-right="0"
     fit-margin-bottom="0"
     inkscape:zoom="10.24"
     inkscape:cx="38.501748"
     inkscape:cy="21.022441"
     inkscape:window-x="-15"
     inkscape:window-y="-15"
     inkscape:window-maximized="1"
     inkscape:current-layer="layer1" /><style
     type="text/css"
     id="style3">
	.st0{fill:#E0E0D1;}
	.st1{opacity:0.2;}
	.st2{fill:#231F20;}
	.st3{fill:#4F5D73;}
</style><g
     class="st1"
     id="g7"
     style="opacity:0.2"
     transform="translate(-8,-8)" /><g
     class="st1"
     id="g11"
     style="opacity:0.2"
     transform="translate(-8,-8)" /><g
     class="st1"
     id="g15"
     style="opacity:0.2"
     transform="translate(-8,-8)" /><g
     class="st1"
     id="g19"
     style="opacity:0.2"
     transform="translate(-8,-8)" /><g
     class="st1"
     id="g23"
     style="opacity:0.2"
     transform="translate(-8,-8)" /><g
     class="st1"
     id="g27"
     style="opacity:0.2"
     transform="translate(-8,-8)" /><g
     class="st1"
     id="g31"
     style="opacity:0.2"
     transform="translate(-8,-8)" /><g
     class="st1"
     id="g35"
     style="opacity:0.2"
     transform="translate(-8,-8)" /><g
     id="g39"
     style="fill:#ffffff;fill-opacity:1"
     transform="translate(-8,-8)"><g
       id="g41"
       style="fill:#ffffff;fill-opacity:1" /><g
       id="g45"
       style="fill:#ffffff;fill-opacity:1"><path
         class="st3"
         d="M 8.4,27.5 C 8.1,29 8,30.5 8,32 c 0,3.6 0.8,7 2.2,10 L 22.9,42 8.4,27.5 Z"
         id="path47"
         style="fill:#ffffff;fill-opacity:1"
         inkscape:connector-curvature="0" /></g><g
       id="g49"
       style="fill:#ffffff;fill-opacity:1"><path
         class="st3"
         d="m 27.5,55.6 c 1.5,0.3 3,0.4 4.5,0.4 3.6,0 7,-0.8 10,-2.2 L 42,41.1 27.5,55.6 Z"
         id="path51"
         style="fill:#ffffff;fill-opacity:1"
         inkscape:connector-curvature="0" /></g><g
       id="g53"
       style="fill:#ffffff;fill-opacity:1"><path
         class="st3"
         d="m 11.8,45 c 2.9,4.5 7.2,7.9 12.3,9.7 l 9.7,-9.7 -22,0 z"
         id="path55"
         style="fill:#ffffff;fill-opacity:1"
         inkscape:connector-curvature="0" /></g><g
       id="g57"
       style="fill:#ffffff;fill-opacity:1"><path
         class="st3"
         d="M 55.6,36.5 C 55.9,35 56,33.5 56,32 56,28.4 55.2,25 53.8,22 l -12.7,0 14.5,14.5 z"
         id="path59"
         style="fill:#ffffff;fill-opacity:1"
         inkscape:connector-curvature="0" /></g><g
       id="g61"
       style="fill:#ffffff;fill-opacity:1" /><g
       id="g65"
       style="fill:#ffffff;fill-opacity:1"><path
         class="st3"
         d="M 52.2,19 C 49.3,14.5 45,11.1 39.9,9.3 l -9.7,9.7 22,0 z"
         id="path67"
         style="fill:#ffffff;fill-opacity:1"
         inkscape:connector-curvature="0" /></g><g
       id="g69"
       style="fill:#ffffff;fill-opacity:1"><path
         class="st3"
         d="M 36.5,8.4 C 35,8.1 33.5,8 32,8 28.4,8 25,8.8 22,10.2 L 22,22.9 36.5,8.4 Z"
         id="path71"
         style="fill:#ffffff;fill-opacity:1"
         inkscape:connector-curvature="0" /></g></g><g
     inkscape:groupmode="layer"
     id="layer1"
     inkscape:label="Layer 1"
     style="display:inline"
     transform="translate(-8,-8)"><path
       style="color:#000000;font-style:normal;font-variant:normal;font-weight:normal;font-stretch:normal;font-size:medium;line-height:normal;font-family:sans-serif;text-indent:0;text-align:start;text-decoration:none;text-decoration-line:none;text-decoration-style:solid;text-decoration-color:#000000;letter-spacing:normal;word-spacing:normal;text-transform:none;direction:ltr;block-progression:tb;writing-mode:lr-tb;baseline-shift:baseline;text-anchor:start;white-space:normal;clip-rule:nonzero;display:inline;overflow:visible;visibility:visible;opacity:1;isolation:auto;mix-blend-mode:normal;color-interpolation:sRGB;color-interpolation-filters:linearRGB;solid-color:#000000;solid-opacity:1;fill:#ffffff;fill-opacity:1;fill-rule:nonzero;stroke:none;stroke-width:4;stroke-linecap:butt;stroke-linejoin:miter;stroke-miterlimit:4;stroke-dasharray:none;stroke-dashoffset:0;stroke-opacity:1;color-rendering:auto;image-rendering:auto;shape-rendering:auto;text-rendering:auto;enable-background:accumulate"
       d="m 32,21.476562 c -5.788103,0 -10.523438,4.735335 -10.523438,10.523438 0,5.788103 4.735335,10.523438 10.523438,10.523438 5.788103,0 10.523438,-4.735335 10.523438,-10.523438 0,-5.788103 -4.735335,-10.523438 -10.523438,-10.523438 z m 0,4 c 3.626343,0 6.523437,2.897095 6.523438,6.523438 0,3.626343 -2.897095,6.523437 -6.523438,6.523438 -3.626343,0 -6.523438,-2.897095 -6.523438,-6.523438 0,-3.626343 2.897095,-6.523437 6.523438,-6.523438 z"
       id="path4509"
       inkscape:connector-curvature="0" /></g></svg>